<?xml version="1.0" encoding="utf-8"?>
<!-- Generator: Adobe Illustrator 15.1.0, SVG Export Plug-In . SVG Version: 6.00 Build 0)  -->
<!DOCTYPE svg PUBLIC "-//W3C//DTD SVG 1.1//EN" "http://www.w3.org/Graphics/SVG/1.1/DTD/svg11.dtd">
<svg version="1.1" id="Capa_1" xmlns="http://www.w3.org/2000/svg" xmlns:xlink="http://www.w3.org/1999/xlink" x="0px" y="0px"
	 width="154px" height="74px" viewBox="0 0 154 74" enable-background="new 0 0 154 74" xml:space="preserve">
<g>
	<g>
		<defs>
			<rect id="SVGID_1_" y="0.188" width="154" height="67.505"/>
		</defs>
		<clipPath id="SVGID_2_">
			<use xlink:href="#SVGID_1_"  overflow="visible"/>
		</clipPath>
		<path clip-path="url(#SVGID_2_)" fill="#FFFFFF" d="M148.693,0.964H42.344c-2.492,0-4.535,1.985-4.535,4.582v21.998
			c0,0.459,0.076,0.764,0.224,1.223c0,0.151,0.078,0.458,0.228,0.611c0.68,1.525,2.269,2.751,4.083,2.751h106.349
			c2.57,0,4.533-2.141,4.533-4.585V5.545C153.227,2.949,151.264,0.964,148.693,0.964"/>
		<path clip-path="url(#SVGID_2_)" fill="#FFFFFF" d="M38.808,28.75l-0.005-0.11l-0.034-0.113c-0.136-0.423-0.187-0.637-0.187-0.983
			V5.545c0-2.134,1.652-3.808,3.762-3.808h106.349c2.143,0,3.76,1.639,3.76,3.808v21.998c0,2.102-1.688,3.809-3.76,3.809H42.344
			c-1.386,0-2.775-0.94-3.376-2.292l-0.044-0.093c0,0-0.048-0.06-0.081-0.098C38.83,28.843,38.81,28.781,38.808,28.75 M42.344,0.188
			c-2.976,0-5.308,2.354-5.308,5.357v21.998c0,0.515,0.087,0.896,0.239,1.371c0.024,0.23,0.112,0.556,0.314,0.841
			c0.872,1.881,2.77,3.145,4.755,3.145h106.349c2.926,0,5.307-2.401,5.307-5.357V5.545c0-3.003-2.332-5.357-5.307-5.357H42.344z"/>
		<path clip-path="url(#SVGID_2_)" fill="#FFFFFF" d="M1.547,27.543V5.545c0-2.169,1.617-3.808,3.76-3.808h23.584
			c2.151,0,3.836,1.674,3.836,3.808v21.998c0,2.066-1.757,3.809-3.836,3.809H5.307c-1.452,0-2.842-0.909-3.539-2.318l-0.074-0.21
			c0,0-0.044-0.117-0.087-0.229C1.551,28.226,1.547,27.974,1.547,27.543 M5.307,0.188C2.331,0.188,0,2.542,0,5.545v21.998
			c0,0.479,0,0.825,0.085,1.346l0.012,0.067l0.056,0.149l0.072,0.203l0.159,0.412C1.339,31.653,3.272,32.9,5.307,32.9h23.584
			c2.918,0,5.383-2.454,5.383-5.357V5.545c0-3.003-2.366-5.357-5.383-5.357H5.307z"/>
		<path clip-path="url(#SVGID_2_)" fill="#FFFFFF" d="M28.892,22.503 M28.739,0.964H5.535c-2.646,0-4.761,2.137-4.761,4.737v21.691
			c0,0.304,0,0.763,0.149,1.219c0,0.156,0.076,0.459,0.229,0.614c0.074,0.152,0.149,0.457,0.225,0.608v0.155
			c0,0,0.076,0,0.076-0.155c0.831,1.377,2.344,2.295,4.082,2.295h23.204c1.512,0,2.948-0.768,3.779-1.989l-0.906-1.833l-1.737-3.667
			l2.644,5.5c0.605-0.763,0.982-1.678,0.982-2.748V5.701C33.5,3.101,31.31,0.964,28.739,0.964"/>
		<path clip-path="url(#SVGID_2_)" fill="#E42313" d="M153.227,27.543c0,2.445-1.963,4.585-4.533,4.585H42.344
			c-1.814,0-3.402-1.227-4.083-2.751c-0.15-0.152-0.228-0.46-0.228-0.611c-0.148-0.459-0.224-0.764-0.224-1.223V5.545
			c0-2.596,2.043-4.582,4.535-4.582h106.349c2.57,0,4.533,1.985,4.533,4.582"/>
		<path clip-path="url(#SVGID_2_)" fill="#005FAA" d="M0.924,28.61c0,0.156,0.076,0.459,0.229,0.614
			c0.677,1.677,2.417,2.904,4.382,2.904h23.204c1.512,0,2.948-0.768,3.779-1.989l-3.626-7.637c-0.304,0.611-2.495,3.514-7.409,3.514
			c-5.364,0-7.254-3.973-7.254-3.973c11.486-1.222,10.053-10.843,10.053-10.843c-2.572,6.11-12.093,6.414-12.093,6.414
			C11.807,7.378,21.255,6.767,21.255,6.767L18.46,0.964H5.535c-2.646,0-4.761,2.137-4.761,4.737v21.691
			C0.774,27.695,0.774,28.154,0.924,28.61"/>
		<path clip-path="url(#SVGID_2_)" fill="#E42313" d="M24.281,11.201c0,0,1.433,9.622-10.053,10.843c0,0,1.89,3.973,7.254,3.973
			c4.914,0,7.105-2.902,7.409-3.514l3.626,7.637c0.605-0.763,0.982-1.678,0.982-2.748V5.701c0-2.6-2.19-4.737-4.761-4.737H18.46
			l2.795,5.803c0,0-9.449,0.611-9.067,10.847C12.188,17.614,21.709,17.311,24.281,11.201"/>
		<path clip-path="url(#SVGID_2_)" fill="#FFFFFF" d="M18.46,0.964l2.795,5.803c0,0-9.449,0.611-9.067,10.847
			c0,0,9.521-0.304,12.093-6.414c0,0,1.433,9.622-10.053,10.843c0,0,1.89,3.973,7.254,3.973c4.914,0,7.105-2.902,7.409-3.514
			l2.72,5.804c-0.379,0.304-3.932,3.666-9.978,3.822h-0.606c-6.272-0.156-11.563-4.281-13.224-8.555c0,0-3.705,1.374-6.124,5.804
			c0,0.152-0.151,0.456-0.303,0.611c0-0.155,0.076-0.763,0.151-1.071c0.301-2.14,1.285-6.721,4.761-9.165
			c0,0-1.587-6.566,2.571-12.374C12.868,1.728,18.006,1.116,18.46,0.964"/>
		<path clip-path="url(#SVGID_2_)" fill="#FFFFFF" d="M95.25,16.544c0-2.596-1.733-4.581-4.303-4.581
			c-2.648,0-4.462,1.985-4.462,4.581c0,2.596,1.813,4.581,4.462,4.581C93.594,21.125,95.25,19.141,95.25,16.544 M100.395,16.389
			c0,5.351-4.084,9.321-9.524,9.321c-5.29,0-9.45-3.97-9.45-9.166c0-5.195,4.16-9.318,9.676-9.318
			C96.463,7.227,100.395,11.201,100.395,16.389"/>
		<path clip-path="url(#SVGID_2_)" fill="#FFFFFF" d="M136.221,7.993c0.229-0.307,0.15-0.459-0.15-0.459h-4.836
			c-0.229,0-0.682,0.152-0.83,0.459l-6.201,6.718c-0.152,0.155-0.379,0.155-0.379-0.151V8.145c0-0.308-0.227-0.611-0.527-0.611
			h-3.404h-0.982h-0.83c-0.228,0-0.301,0.152-0.15,0.459l0.305,0.608c0.15,0.307,0.223,0.766,0.223,1.07v15.276
			c0,0.304,0.227,0.459,0.531,0.459h4.309c0.301,0,0.527-0.155,0.527-0.459v-7.484c0-0.308,0.152-0.308,0.304-0.152l5.441,7.637
			c0.152,0.304,0.53,0.459,0.835,0.459h5.137c0.301,0,0.379-0.155,0.227-0.459l-6.198-8.861c-0.226-0.305-0.226-0.611,0-0.764"/>
		<path clip-path="url(#SVGID_2_)" fill="#FFFFFF" d="M140.152,7.534h-0.984h-0.83c-0.227,0-0.305,0.152-0.152,0.459l0.305,0.608
			c0.148,0.307,0.227,0.766,0.227,1.07v15.276c0,0.304,0.225,0.459,0.529,0.459h4.307c0.305,0,0.604-0.155,0.604-0.459V8.145
			c0-0.308-0.299-0.611-0.604-0.611"/>
		<path clip-path="url(#SVGID_2_)" fill="#FFFFFF" d="M52.017,18.685c0-0.307,0.305-0.61,0.606-0.61h4.156
			c0.303,0,0.682-0.155,0.759-0.46l1.208-2.445c0.151-0.304,0-0.61-0.303-0.61h-5.819c-0.302,0-0.606-0.152-0.606-0.459v-2.596
			c0-0.304,0.305-0.456,0.606-0.456h6.424c0.301,0,0.602-0.308,0.602-0.614V8.145c0-0.308-0.301-0.611-0.602-0.611H46.426
			c-0.301,0-0.452,0.152-0.301,0.459l0.301,0.608c0.076,0.307,0.226,0.766,0.226,1.07v15.276c0,0.304,0.228,0.459,0.529,0.459
			h11.867c0.301,0,0.602-0.155,0.602-0.459v-2.596c0-0.308-0.301-0.459-0.602-0.459h-6.424c-0.302,0-0.606-0.308-0.606-0.611"/>
		<path clip-path="url(#SVGID_2_)" fill="#FFFFFF" d="M111.881,15.933c-1.205-0.764-2.191-1.374-2.719-1.833
			c-0.457-0.455-0.833-0.763-0.833-1.375c0-1.065,1.06-1.677,2.569-1.677c0.605,0,1.061,0.152,1.438,0.301
			c0.378,0,0.604,0.155,1.058,0.311c0.682,0.456,1.131,0.759,1.131,0.759c0.305,0.156,0.457,0.156,0.457-0.152v-3.51
			c0-0.308-0.227-0.611-0.53-0.764c0,0-0.227-0.155-0.757-0.307c-0.754-0.152-2.191-0.308-3.248-0.308
			c-5.293,0-7.561,2.6-7.561,5.347c0,1.985,1.21,3.361,2.57,4.43c0.68,0.459,1.439,1.071,2.27,1.53
			c0.828,0.608,1.436,1.223,1.436,1.834c0,1.066-1.06,1.525-2.418,1.525c-0.986,0-1.813-0.151-2.496-0.304
			c-0.379-0.155-0.831-0.459-1.137-0.615l-0.299-0.15c-0.227-0.305-0.453-0.152-0.453,0.15v3.212c0,0.303,0.152,0.61,0.301,0.762
			h0.152c1.057,0.459,2.871,0.611,4.537,0.611c4.309,0,7.406-1.988,7.406-5.041C114.756,18.685,113.621,17.311,111.881,15.933"/>
		<path clip-path="url(#SVGID_2_)" fill="#FFFFFF" d="M69.932,16.086h-0.678v-5.038h0.98c1.89,0,3.026,0.915,3.026,2.441
			c0,1.069-0.683,1.833-1.213,2.14C71.518,15.933,70.764,16.086,69.932,16.086 M81.42,25.099c0,0-5.743-6.873-6.119-7.332
			c0.376-0.152,0.982-0.456,1.511-0.916c0.832-0.462,2.038-1.985,2.038-3.974c0-3.206-2.492-4.581-4.456-5.04
			c-1.286-0.304-3.477-0.459-5.292-0.459c-0.831,0-5.517,0.155-5.517,0.155c-0.303,0-0.454,0.152-0.303,0.459l0.303,0.608
			c0.149,0.307,0.227,0.766,0.227,1.07v15.276c0,0.304,0.226,0.459,0.527,0.459h4.311c0.3,0,0.605-0.155,0.605-0.459v-6.263h1.209
			c1.812,2.29,4.912,6.263,4.912,6.263c0.15,0.304,0.527,0.459,0.908,0.459h4.988C81.57,25.406,81.649,25.251,81.42,25.099"/>
		<path clip-path="url(#SVGID_2_)" fill="#FFFFFF" d="M148.693,0.964H42.344c-2.492,0-4.535,1.985-4.535,4.582v21.998
			c0,0.459,0.076,0.764,0.224,1.223c0,0.151,0.078,0.458,0.228,0.611c0.68,1.525,2.269,2.751,4.083,2.751h106.349
			c2.57,0,4.533-2.141,4.533-4.585V5.545C153.227,2.949,151.264,0.964,148.693,0.964"/>
		<path clip-path="url(#SVGID_2_)" fill="#FFFFFF" d="M38.808,28.75l-0.005-0.11l-0.034-0.113c-0.136-0.423-0.187-0.637-0.187-0.983
			V5.545c0-2.134,1.652-3.808,3.762-3.808h106.349c2.143,0,3.76,1.639,3.76,3.808v21.998c0,2.102-1.688,3.809-3.76,3.809H42.344
			c-1.386,0-2.775-0.94-3.376-2.292l-0.044-0.093c0,0-0.048-0.06-0.081-0.098C38.83,28.843,38.81,28.781,38.808,28.75 M42.344,0.188
			c-2.976,0-5.308,2.354-5.308,5.357v21.998c0,0.515,0.087,0.896,0.239,1.371c0.024,0.23,0.112,0.556,0.314,0.841
			c0.872,1.881,2.77,3.145,4.755,3.145h106.349c2.926,0,5.307-2.401,5.307-5.357V5.545c0-3.003-2.332-5.357-5.307-5.357H42.344z"/>
		<path clip-path="url(#SVGID_2_)" fill="#FFFFFF" d="M1.547,27.543V5.545c0-2.169,1.617-3.808,3.76-3.808h23.584
			c2.151,0,3.836,1.674,3.836,3.808v21.998c0,2.066-1.757,3.809-3.836,3.809H5.307c-1.452,0-2.842-0.909-3.539-2.318l-0.074-0.21
			c0,0-0.044-0.117-0.087-0.229C1.551,28.226,1.547,27.974,1.547,27.543 M5.307,0.188C2.331,0.188,0,2.542,0,5.545v21.998
			c0,0.479,0,0.825,0.085,1.346l0.012,0.067l0.056,0.149l0.072,0.203l0.159,0.412C1.339,31.653,3.272,32.9,5.307,32.9h23.584
			c2.918,0,5.383-2.454,5.383-5.357V5.545c0-3.003-2.366-5.357-5.383-5.357H5.307z"/>
		<path clip-path="url(#SVGID_2_)" fill="#FFFFFF" d="M28.892,22.503 M28.739,0.964H5.535c-2.646,0-4.761,2.137-4.761,4.737v21.691
			c0,0.304,0,0.763,0.149,1.219c0,0.156,0.076,0.459,0.229,0.614c0.074,0.152,0.149,0.457,0.225,0.608v0.155
			c0,0,0.076,0,0.076-0.155c0.831,1.377,2.344,2.295,4.082,2.295h23.204c1.512,0,2.948-0.768,3.779-1.989l-0.906-1.833l-1.737-3.667
			l2.644,5.5c0.605-0.763,0.982-1.678,0.982-2.748V5.701C33.5,3.101,31.31,0.964,28.739,0.964"/>
		<path clip-path="url(#SVGID_2_)" fill="#E42313" d="M153.227,27.543c0,2.445-1.963,4.585-4.533,4.585H42.344
			c-1.814,0-3.402-1.227-4.083-2.751c-0.15-0.152-0.228-0.46-0.228-0.611c-0.148-0.459-0.224-0.764-0.224-1.223V5.545
			c0-2.596,2.043-4.582,4.535-4.582h106.349c2.57,0,4.533,1.985,4.533,4.582"/>
		<path clip-path="url(#SVGID_2_)" fill="#005FAA" d="M0.924,28.61c0,0.156,0.076,0.459,0.229,0.614
			c0.677,1.677,2.417,2.904,4.382,2.904h23.204c1.512,0,2.948-0.768,3.779-1.989l-3.626-7.637c-0.304,0.611-2.849,3.514-7.409,3.514
			c-5.364,0-7.254-3.973-7.254-3.973c11.486-1.222,10.053-10.843,10.053-10.843c-2.572,6.11-12.093,6.414-12.093,6.414
			C11.807,7.378,21.255,6.767,21.255,6.767L18.46,0.964H5.535c-2.646,0-4.761,2.137-4.761,4.737v21.691
			C0.774,27.695,0.774,28.154,0.924,28.61"/>
		<path clip-path="url(#SVGID_2_)" fill="#E42313" d="M24.281,11.201c0,0,1.433,9.622-10.053,10.843c0,0,1.89,3.973,7.254,3.973
			c4.914,0,7.105-2.902,7.409-3.514l3.626,7.637c0.605-0.763,0.982-1.678,0.982-2.748V5.701c0-2.6-2.19-4.737-4.761-4.737H18.46
			l2.795,5.803c0,0-9.449,0.611-9.067,10.847C12.188,17.614,21.709,17.311,24.281,11.201"/>
		<path clip-path="url(#SVGID_2_)" fill="#FFFFFF" d="M18.46,0.964l2.795,5.803c0,0-9.449,0.611-9.067,10.847
			c0,0,9.521-0.304,12.093-6.414c0,0,1.433,9.622-10.053,10.843c0,0,1.89,3.973,7.254,3.973c4.914,0,7.105-2.902,7.409-3.514
			l2.72,5.804c-0.379,0.304-3.932,3.666-9.978,3.822h-0.606c-6.272-0.156-11.563-4.281-13.224-8.555c0,0-3.705,1.374-6.124,5.804
			c0,0.152-0.151,0.456-0.303,0.611c0-0.155,0.076-0.763,0.151-1.071c0.301-2.14,1.285-6.721,4.761-9.165
			c0,0-1.587-6.566,2.571-12.374C12.868,1.728,18.006,1.116,18.46,0.964"/>
		<path clip-path="url(#SVGID_2_)" fill="#FFFFFF" d="M95.25,16.544c0-2.596-1.733-4.581-4.303-4.581
			c-2.648,0-4.462,1.985-4.462,4.581c0,2.596,1.813,4.581,4.462,4.581C93.594,21.125,95.25,19.141,95.25,16.544 M100.395,16.389
			c0,5.351-4.084,9.321-9.524,9.321c-5.29,0-9.45-3.97-9.45-9.166c0-5.195,4.16-9.318,9.676-9.318
			C96.463,7.227,100.395,11.201,100.395,16.389"/>
		<path clip-path="url(#SVGID_2_)" fill="#FFFFFF" d="M136.221,7.993c0.229-0.307,0.15-0.459-0.15-0.459h-4.836
			c-0.229,0-0.682,0.152-0.83,0.459l-6.201,6.718c-0.152,0.155-0.379,0.155-0.379-0.151V8.145c0-0.308-0.227-0.611-0.527-0.611
			h-3.404h-0.982h-0.83c-0.228,0-0.301,0.152-0.15,0.459l0.305,0.608c0.15,0.307,0.223,0.766,0.223,1.07v15.276
			c0,0.304,0.227,0.459,0.531,0.459h4.309c0.301,0,0.527-0.155,0.527-0.459v-7.484c0-0.308,0.152-0.308,0.304-0.152l5.441,7.637
			c0.152,0.304,0.53,0.459,0.835,0.459h5.137c0.301,0,0.379-0.155,0.227-0.459l-6.198-8.861c-0.226-0.305-0.226-0.611,0-0.764"/>
		<path clip-path="url(#SVGID_2_)" fill="#FFFFFF" d="M140.152,7.534h-0.984h-0.83c-0.227,0-0.305,0.152-0.152,0.459l0.305,0.608
			c0.148,0.307,0.227,0.766,0.227,1.07v15.276c0,0.304,0.225,0.459,0.529,0.459h4.307c0.305,0,0.604-0.155,0.604-0.459V8.145
			c0-0.308-0.299-0.611-0.604-0.611"/>
		<path clip-path="url(#SVGID_2_)" fill="#FFFFFF" d="M52.017,18.685c0-0.307,0.305-0.61,0.606-0.61h4.156
			c0.303,0,0.682-0.155,0.759-0.46l1.208-2.445c0.151-0.304,0-0.61-0.303-0.61h-5.819c-0.302,0-0.606-0.152-0.606-0.459v-2.596
			c0-0.304,0.305-0.456,0.606-0.456h6.424c0.301,0,0.602-0.308,0.602-0.614V8.145c0-0.308-0.301-0.611-0.602-0.611H46.426
			c-0.301,0-0.452,0.152-0.301,0.459l0.301,0.608c0.076,0.307,0.226,0.766,0.226,1.07v15.276c0,0.304,0.228,0.459,0.529,0.459
			h11.867c0.301,0,0.602-0.155,0.602-0.459v-2.596c0-0.308-0.301-0.459-0.602-0.459h-6.424c-0.302,0-0.606-0.308-0.606-0.611"/>
		<path clip-path="url(#SVGID_2_)" fill="#FFFFFF" d="M111.881,15.933c-1.205-0.764-2.191-1.374-2.719-1.833
			c-0.457-0.455-0.833-0.763-0.833-1.375c0-1.065,1.06-1.677,2.569-1.677c0.605,0,1.061,0.152,1.438,0.301
			c0.378,0,0.604,0.155,1.058,0.311c0.682,0.456,1.131,0.759,1.131,0.759c0.305,0.156,0.457,0.156,0.457-0.152v-3.51
			c0-0.308-0.227-0.611-0.53-0.764c0,0-0.227-0.155-0.757-0.307c-0.754-0.152-2.191-0.308-3.248-0.308
			c-5.293,0-7.561,2.6-7.561,5.347c0,1.985,1.21,3.361,2.57,4.43c0.68,0.459,1.439,1.071,2.27,1.53
			c0.828,0.608,1.436,1.223,1.436,1.834c0,1.066-1.06,1.525-2.418,1.525c-0.986,0-1.813-0.151-2.496-0.304
			c-0.379-0.155-0.831-0.459-1.137-0.615l-0.299-0.15c-0.227-0.305-0.453-0.152-0.453,0.15v3.212c0,0.303,0.152,0.61,0.301,0.762
			h0.152c1.057,0.459,2.871,0.611,4.537,0.611c4.309,0,7.406-1.988,7.406-5.041C114.756,18.685,113.621,17.311,111.881,15.933"/>
		<path clip-path="url(#SVGID_2_)" fill="#FFFFFF" d="M69.932,16.086h-0.678v-5.038h0.98c1.89,0,3.026,0.915,3.026,2.441
			c0,1.069-0.683,1.833-1.213,2.14C71.518,15.933,70.764,16.086,69.932,16.086 M81.42,25.099c0,0-5.743-6.873-6.119-7.332
			c0.376-0.152,0.982-0.456,1.511-0.916c0.832-0.462,2.038-1.985,2.038-3.974c0-3.206-2.492-4.581-4.456-5.04
			c-1.286-0.304-3.477-0.459-5.292-0.459c-0.831,0-5.517,0.155-5.517,0.155c-0.303,0-0.454,0.152-0.303,0.459l0.303,0.608
			c0.149,0.307,0.227,0.766,0.227,1.07v15.276c0,0.304,0.226,0.459,0.527,0.459h4.311c0.3,0,0.605-0.155,0.605-0.459v-6.263h1.209
			c1.812,2.29,4.912,6.263,4.912,6.263c0.15,0.304,0.527,0.459,0.908,0.459h4.988C81.57,25.406,81.649,25.251,81.42,25.099"/>
	</g>
	<g>
		<path fill="#005FAA" d="M111.829,51.814c0,0.004,0.055,0.156,0.055,0.156l-0.009,0.065c-0.123,0.517-1.274,1.156-1.708,1.393
			c-0.005,0-0.133,0.069-0.133,0.069c-0.89,0.503-1.836,0.994-2.699,1.035c-0.309,0.018-0.499-0.07-0.548-0.157
			c-0.05-0.086-0.009-0.252,0.114-0.436c0.368-0.563,0.764-0.777,1.479-1.161c0.003-0.004,0.371-0.202,0.371-0.202
			c0.75-0.408,1.531-0.835,2.356-0.994C111.393,51.529,111.701,51.628,111.829,51.814 M116.255,57.926l-0.016-0.012
			c-0.245-0.152-0.546-0.157-0.855-0.014c-0.4,0.187-0.681,0.517-0.95,0.831l-0.234,0.271c-0.45,0.476-0.884,0.866-1.324,1.201
			c-1.358,1.042-3.571,1.771-5.226,0.921c-1.296-0.674-2.236-2.232-2.236-3.719c0,0,0.04-0.448,0.056-0.61
			c1.516-0.099,3.142-0.306,4.784-1.037l0.183-0.079c1.319-0.586,2.971-1.309,3.875-2.541c0.33-0.451,0.512-0.985,0.512-1.524
			c0-0.223-0.032-0.444-0.095-0.655c-0.202-0.667-0.693-1.177-1.383-1.433c-2.299-0.854-5.386,0.648-7.508,2.337
			c-1.981,1.556-2.988,3.408-2.988,5.501c0,1.495,0.492,2.947,1.457,4.321c0.602,0.86,1.647,1.507,2.068,1.752
			c1.486,0.846,3.322,1.1,4.907,0.685c1.861-0.487,3.698-2.063,4.796-3.377c0.421-0.512,0.809-1.064,0.809-1.659
			C116.886,58.623,116.677,58.23,116.255,57.926"/>
		<path fill="#005FAA" d="M92.171,52.631l-0.004-0.004c-0.1-0.187-0.235-0.346-0.416-0.472c-0.587-0.396-1.156-0.408-1.573-0.036
			c-0.582,0.523-0.645,1.462-0.689,2.212l-0.025,0.334l-0.028,0.311c-0.111,1.324-0.231,2.698-0.647,3.958
			c-0.343,1.023-0.81,2.079-1.663,2.126c-0.706,0.033-1.073-0.916-1.318-1.747c-0.354-1.21-0.433-2.501-0.503-3.751
			c-0.004-0.01-0.024-0.389-0.024-0.389c-0.024-0.375,0.016-0.774,0.059-1.158c0.058-0.625,0.119-1.265-0.029-1.88
			c-0.142-0.57-0.632-1.246-1.255-1.378c-0.396-0.086-0.768,0.064-1.057,0.429c-0.413,0.525-0.342,1.23-0.285,1.796l0.021,0.211
			c0-0.004,0.156,1.994,0.156,1.994l0.07,0.945c0.114,1.513,0.321,2.975,0.611,4.349c0.271,1.284,1.105,2.845,2.348,3.431
			c0.759,0.359,1.565,0.325,2.394-0.104c0.839-0.438,1.403-1.168,1.727-1.699c0.606-0.999,0.767-1.422,1.072-2.58
			c0.466-1.785,0.928-3.702,1.155-5.662l0.029-0.303C92.315,53.273,92.315,52.938,92.171,52.631"/>
		<path fill="#005FAA" d="M134.245,45.333c-0.89,0-1.612,0.723-1.612,1.61c0,0.893,0.723,1.617,1.612,1.617
			c0.889,0,1.614-0.725,1.614-1.617C135.859,46.056,135.134,45.333,134.245,45.333"/>
		<path fill="#005FAA" d="M149.19,62.562l-0.094-5.608c0.529-7.53-2.221-7.438-2.221-7.438c-3.426-1.044-4.73,4.441-5.242,6.493
			c0.009-0.258,0.021-0.427,0.021-0.427s0.13-2.811,0.175-3.12c0.045-0.308,0.261-1.716,0.261-1.886c0-0.178,0-1.365-1.054-1.493
			c-1.053-0.133-1.317,0.567-1.317,0.7c0,0.128-0.62,8.35-0.572,9.093c0.044,0.757-0.306,4.003-0.129,4.268
			c0.173,0.266,0.528,1.403,1.759,0.881c0.413-0.183,0.631-0.777,0.738-1.505c0.173-0.449,0.768-2.009,1.011-2.909
			c0.294-1.06,2.608-7.052,2.608-7.052c0.24-0.871,1.21-1.303,1.644-0.434c0.434,0.873,0.144,4.057,0.144,4.057l0.245,7.005
			c-0.2,2.364,1.931,1.927,2.53,1.538C150.289,64.328,149.19,62.562,149.19,62.562"/>
		<path fill="#005FAA" d="M104.248,50.465v0.002c-0.053-0.548-0.446-0.961-1.177-1.228c-0.887-0.323-2.001-0.24-2.844,0.204
			c-0.64,0.344-1.13,0.851-1.605,1.338c-0.696,0.723-1.25,1.347-1.742,1.965c-0.003,0.009-0.053,0.069-0.053,0.069
			s-0.194,0.261-0.314,0.418c-0.078-1.395-0.294-2.229-0.68-2.596c-0.299-0.265-0.607-0.397-0.921-0.397
			c-0.476,0-0.862,0.24-1.156,0.712c-0.017,0.036-0.107,0.28-0.107,0.28l-0.114,0.316c0,0,0.131-0.016,0.192-0.024
			c0.042,0.112,0.104,0.359,0.252,0.954c0.211,0.871,0.323,2.063,0.323,3.541l-0.038,2.022c-0.041,0.826-0.144,1.787-0.31,2.865
			c-0.132,1.01-0.193,1.604-0.193,1.877c0,0.503,0.111,0.859,0.346,1.091c0.272,0.301,0.64,0.46,1.058,0.46
			c0.367,0,0.68-0.152,0.932-0.453c0.087-0.112,0.19-0.236,0.359-2.019c0,0.005,0.285-1.866,0.285-1.866l0.177-1.053
			c0.088-0.689,0.225-1.336,0.404-1.939c0.661-2.146,1.652-3.797,2.956-4.915c0.272-0.24,0.723-0.529,1.056-0.628
			c0.276-0.086,0.483-0.05,0.863,0.054l0.161,0.045c0.352,0.105,0.788,0.233,1.221,0.026c0.413-0.186,0.674-0.579,0.674-1.019
			L104.248,50.465z"/>
		<path fill="#005FAA" d="M130.161,62.624l-0.005-0.004c-0.235-0.368-0.635-0.638-0.999-0.852c0.007,0.005-1.372-0.92-1.372-0.92
			c0,0.004-0.828-0.575-0.828-0.575c-0.81-0.538-1.519-1.122-2.18-1.778l-0.847-0.861c0-0.005-1.241-1.246-1.241-1.246
			c-0.005,0-0.355-0.33-0.355-0.33c0.005,0-0.763-0.748-1.044-1.024c0.169-0.175,0.937-0.987,0.937-0.987
			c0.005-0.005,1.132-1.271,1.132-1.271l0.222-0.261c1.215-1.398,2.466-2.852,3.851-4.111l0.182-0.159
			c0.409-0.344,0.964-0.818,1.024-1.375l0.004-0.083c0-0.165-0.058-0.322-0.161-0.445c-0.231-0.285-0.631-0.351-0.797-0.363
			c-0.489-0.055-1.006,0.119-1.53,0.507c-0.623,0.462-1.164,1.049-1.659,1.614c-1.119,1.255-2.163,2.593-3.174,3.889
			c0.135-0.788,0.449-2.63,0.449-2.63c0.252-1.432,0.562-2.604,0.93-3.491c0.412-1.09,0.444-1.264,0.444-1.378
			c0-0.344-0.106-0.678-0.312-0.988c-0.24-0.346-0.567-0.527-0.967-0.527c-0.215,0-0.421,0.059-0.628,0.16
			c-0.256,0.104-0.66,0.273-1.679,5.448c-0.772,3.873-1.222,7.764-1.348,11.569c-0.106,3.417,0.265,4.261,0.607,4.606
			c0.152,0.162,0.344,0.247,0.549,0.247c1.292,0,1.486-0.705,1.486-1.129c0-0.216-0.066-0.579-0.206-1.151
			c-0.116-0.51-0.178-0.921-0.178-1.23c0-0.005-0.009-0.714-0.009-0.714c0-1.141,0.087-2.21,0.244-3.195
			c0.317,0.292,1.357,1.237,1.357,1.237l1.404,1.305c0.862,0.771,1.638,1.432,2.381,2.018l0.352,0.285
			c0.602,0.483,1.226,0.979,1.917,1.393c1.116,0.655,1.727,0.188,1.992-0.148c0.123-0.157,0.188-0.348,0.188-0.55
			C130.296,62.95,130.246,62.772,130.161,62.624"/>
		<path fill="#005FAA" d="M135.37,52.355v0.007V52.355z M134.287,50.721c-0.379,0-0.693,0.123-0.925,0.366
			c-0.61,0.628-0.562,1.91-0.527,2.849l0.009,0.694l-0.078,1.822l-0.034,0.979c-0.054,1.232-0.123,2.562-0.26,3.913
			c-0.09,0.887-0.218,2.178,0.804,2.683c0.294,0.144,0.617,0.169,0.904,0.07c0.294-0.108,0.537-0.335,0.676-0.641
			c0.13-0.27,0.171-0.527,0.171-0.792c0-0.27-0.045-0.532-0.09-0.793l-0.072-0.472c-0.026-0.316-0.04-0.642-0.04-0.97
			c0-0.7,0.059-1.423,0.112-2.128l0.056-0.732l0.067-1.001l0.223-2.939l0.016-0.156l0.072-1.111
			C135.348,51.008,134.766,50.721,134.287,50.721"/>
		<path fill="#005FAA" d="M83.235,60.451c-0.28-0.622-1.251-0.943-1.684-0.97c-0.756-0.045-1.471,0.19-2.162,0.422
			c0.003-0.005-1.082,0.31-1.082,0.31c0.009,0-4.352,0.999-4.352,0.999l-1.596,0.38l-0.197,0.054
			c-1.529,0.396-1.718,0.168-1.743,0.09c-0.152-0.582,0.636-1.251,1.155-1.693c0.003-0.002,0.367-0.32,0.367-0.32
			c2.225-2.183,3.549-3.512,4.206-4.298c0.003-0.004,1.081-1.374,1.081-1.374c0.529-0.723,1.507-2.062,1.271-3.174
			c-0.09-0.432-0.35-0.775-0.774-1.02c-1.19-0.691-2.798-0.544-4.09-0.425c-0.004,0-0.194,0.016-0.194,0.016
			c-1.46,0.133-3.162,0.306-4.795,0.674c-1.198,0.265-1.899,0.645-2.147,1.156c-0.127,0.268-0.124,0.562,0.017,0.851
			c0.21,0.425,0.681,0.681,1.227,0.667c0.561-0.011,1.08-0.182,1.584-0.346l0.598-0.187c1.313-0.35,2.337-0.545,3.328-0.621
			c-0.013,0,0.429-0.052,0.429-0.052l0.714-0.057c0.6,0.012,1.193,0.178,1.333,0.384c0.016,0.021,0.045,0.065,0.004,0.178
			c-0.297,0.792-1.041,1.59-1.693,2.29c-0.004,0-0.346,0.37-0.346,0.37s0.025-0.007,0.045-0.016
			c-0.107,0.079-0.425,0.422-1.754,1.837c-0.998,1.015-2.076,2.043-3.212,3.051c-0.646,0.577-1.237,1.094-1.877,1.565
			c-0.602,0.444-1.283,0.947-1.531,1.749c-0.045,0.147-0.065,0.289-0.065,0.429c0,0.536,0.326,1.019,0.912,1.309
			c0.722,0.363,1.453,0.231,2.133,0.062l0.458-0.112l1.738-0.408l3.769-0.916l4.239-1.066c1.519-0.382,1.791-0.453,2.295-0.503
			l0.591,0.045c0.469,0.076,1.06,0.161,1.507-0.238c0.008-0.004,0.147-0.157,0.147-0.157c0.153-0.19,0.227-0.384,0.227-0.581
			L83.235,60.451z"/>
	</g>
</g>
</svg>
