<?xml version="1.0" encoding="utf-8"?>
<!-- Generator: Adobe Illustrator 15.1.0, SVG Export Plug-In . SVG Version: 6.00 Build 0)  -->
<!DOCTYPE svg PUBLIC "-//W3C//DTD SVG 1.1//EN" "http://www.w3.org/Graphics/SVG/1.1/DTD/svg11.dtd">
<svg version="1.1" id="Capa_1" xmlns="http://www.w3.org/2000/svg" xmlns:xlink="http://www.w3.org/1999/xlink" x="0px" y="0px"
	 width="154px" height="74px" viewBox="0 0 154 74" enable-background="new 0 0 154 74" xml:space="preserve">
<g>
	<g>
		<defs>
			<rect id="SVGID_1_" x="0" width="154" height="67.504"/>
		</defs>
		<clipPath id="SVGID_2_">
			<use xlink:href="#SVGID_1_"  display="none" overflow="visible"/>
		</clipPath>
		<path clip-path="url(#SVGID_2_)" fill="#FFFFFF" d="M148.695,0.775H42.345c-2.492,0-4.535,1.985-4.535,4.582v21.998
			c0,0.458,0.076,0.764,0.224,1.222c0,0.151,0.077,0.459,0.228,0.611c0.68,1.524,2.269,2.751,4.083,2.751h106.351
			c2.568,0,4.532-2.141,4.532-4.584V5.357C153.228,2.761,151.264,0.775,148.695,0.775"/>
		<path clip-path="url(#SVGID_2_)" fill="#FFFFFF" d="M38.808,28.561l-0.005-0.11l-0.034-0.114
			c-0.137-0.423-0.188-0.636-0.188-0.982V5.357c0-2.134,1.653-3.809,3.763-3.809h106.351c2.142,0,3.76,1.639,3.76,3.809v21.998
			c0,2.102-1.688,3.809-3.76,3.809H42.345c-1.386,0-2.775-0.94-3.376-2.292l-0.044-0.093c0,0-0.048-0.059-0.081-0.098
			C38.83,28.655,38.811,28.593,38.808,28.561 M42.345,0c-2.976,0-5.309,2.353-5.309,5.357v21.998c0,0.514,0.087,0.895,0.239,1.371
			c0.024,0.23,0.112,0.556,0.314,0.841c0.872,1.881,2.77,3.146,4.755,3.146h106.351c2.925,0,5.305-2.402,5.305-5.357V5.357
			C154,2.353,151.67,0,148.695,0H42.345z"/>
		<path clip-path="url(#SVGID_2_)" fill="#FFFFFF" d="M1.547,27.355V5.357c0-2.169,1.617-3.809,3.76-3.809h23.584
			c2.151,0,3.836,1.674,3.836,3.809v21.998c0,2.065-1.758,3.809-3.836,3.809H5.308c-1.452,0-2.843-0.909-3.539-2.318l-0.074-0.211
			c0,0-0.044-0.116-0.087-0.228C1.551,28.038,1.547,27.786,1.547,27.355 M5.308,0C2.331,0,0,2.353,0,5.357v21.998
			c0,0.478,0,0.824,0.085,1.346l0.012,0.067l0.056,0.149l0.072,0.203l0.159,0.412c0.955,1.933,2.888,3.181,4.923,3.181h23.584
			c2.918,0,5.383-2.455,5.383-5.357V5.357C34.275,2.353,31.909,0,28.892,0H5.308z"/>
		<path clip-path="url(#SVGID_2_)" fill="#FFFFFF" d="M28.892,22.314 M28.739,0.775H5.535c-2.646,0-4.761,2.137-4.761,4.736v21.691
			c0,0.304,0,0.763,0.149,1.219c0,0.155,0.076,0.459,0.229,0.614c0.074,0.152,0.15,0.457,0.226,0.609v0.154c0,0,0.075,0,0.075-0.154
			c0.831,1.376,2.345,2.294,4.082,2.294h23.204c1.512,0,2.948-0.768,3.779-1.988l-0.906-1.833l-1.737-3.667l2.643,5.5
			c0.606-0.763,0.982-1.679,0.982-2.748V5.512C33.5,2.913,31.31,0.775,28.739,0.775"/>
		<path clip-path="url(#SVGID_2_)" fill="#E42313" d="M153.228,27.355c0,2.444-1.964,4.584-4.532,4.584H42.345
			c-1.814,0-3.402-1.227-4.083-2.751c-0.151-0.152-0.228-0.46-0.228-0.611c-0.148-0.458-0.224-0.764-0.224-1.222V5.357
			c0-2.596,2.043-4.582,4.535-4.582h106.351c2.568,0,4.532,1.985,4.532,4.582"/>
		<path clip-path="url(#SVGID_2_)" fill="#005FAA" d="M0.924,28.422c0,0.155,0.076,0.459,0.229,0.614
			c0.677,1.677,2.417,2.903,4.382,2.903h23.204c1.512,0,2.948-0.768,3.779-1.988l-3.626-7.637c-0.304,0.612-2.495,3.514-7.409,3.514
			c-5.364,0-7.255-3.973-7.255-3.973c11.487-1.222,10.053-10.844,10.053-10.844c-2.571,6.11-12.093,6.414-12.093,6.414
			C11.807,7.19,21.256,6.579,21.256,6.579L18.46,0.775H5.535c-2.646,0-4.761,2.137-4.761,4.736v21.691
			C0.774,27.507,0.774,27.966,0.924,28.422"/>
		<path clip-path="url(#SVGID_2_)" fill="#E42313" d="M24.281,11.012c0,0,1.434,9.622-10.053,10.844c0,0,1.891,3.973,7.255,3.973
			c4.914,0,7.105-2.902,7.409-3.514l3.626,7.637c0.606-0.763,0.982-1.679,0.982-2.748V5.512c0-2.599-2.19-4.736-4.761-4.736H18.46
			l2.795,5.803c0,0-9.449,0.611-9.067,10.847C12.188,17.426,21.71,17.122,24.281,11.012"/>
		<path clip-path="url(#SVGID_2_)" fill="#FFFFFF" d="M18.46,0.775l2.795,5.803c0,0-9.449,0.611-9.067,10.847
			c0,0,9.521-0.304,12.093-6.414c0,0,1.434,9.622-10.053,10.844c0,0,1.891,3.973,7.255,3.973c4.914,0,7.105-2.902,7.409-3.514
			l2.72,5.805c-0.379,0.303-3.932,3.665-9.978,3.821h-0.605c-6.273-0.156-11.563-4.28-13.225-8.555c0,0-3.704,1.374-6.124,5.804
			c0,0.152-0.151,0.457-0.302,0.61c0-0.154,0.075-0.763,0.151-1.07c0.301-2.14,1.285-6.721,4.761-9.165c0,0-1.588-6.566,2.57-12.374
			C12.868,1.539,18.006,0.928,18.46,0.775"/>
		<path clip-path="url(#SVGID_2_)" fill="#FFFFFF" d="M95.251,16.356c0-2.596-1.733-4.581-4.303-4.581
			c-2.649,0-4.462,1.985-4.462,4.581c0,2.596,1.812,4.581,4.462,4.581C93.593,20.937,95.251,18.952,95.251,16.356 M100.396,16.201
			c0,5.351-4.084,9.321-9.525,9.321c-5.289,0-9.45-3.97-9.45-9.166c0-5.195,4.161-9.318,9.676-9.318
			C96.464,7.038,100.396,11.012,100.396,16.201"/>
		<path clip-path="url(#SVGID_2_)" fill="#FFFFFF" d="M136.221,7.804c0.23-0.307,0.15-0.459-0.148-0.459h-4.837
			c-0.229,0-0.683,0.152-0.831,0.459l-6.2,6.718c-0.153,0.155-0.379,0.155-0.379-0.151V7.957c0-0.308-0.227-0.611-0.527-0.611
			h-3.405h-0.982h-0.829c-0.229,0-0.301,0.152-0.15,0.459l0.305,0.608c0.149,0.306,0.223,0.766,0.223,1.07v15.276
			c0,0.304,0.227,0.459,0.53,0.459h4.31c0.301,0,0.527-0.155,0.527-0.459v-7.484c0-0.308,0.151-0.308,0.304-0.153l5.44,7.637
			c0.152,0.304,0.53,0.459,0.835,0.459h5.138c0.301,0,0.378-0.155,0.227-0.459l-6.199-8.861c-0.227-0.305-0.227-0.611,0-0.764"/>
		<path clip-path="url(#SVGID_2_)" fill="#FFFFFF" d="M140.152,7.345h-0.984h-0.829c-0.229,0-0.305,0.152-0.152,0.459l0.305,0.608
			c0.148,0.306,0.226,0.766,0.226,1.07v15.276c0,0.304,0.227,0.459,0.529,0.459h4.308c0.305,0,0.604-0.155,0.604-0.459V7.957
			c0-0.308-0.299-0.611-0.604-0.611"/>
		<path clip-path="url(#SVGID_2_)" fill="#FFFFFF" d="M52.018,18.496c0-0.307,0.305-0.61,0.606-0.61h4.156
			c0.303,0,0.682-0.156,0.759-0.46l1.207-2.445c0.151-0.304,0-0.61-0.302-0.61h-5.82c-0.302,0-0.606-0.152-0.606-0.459v-2.596
			c0-0.304,0.305-0.456,0.606-0.456h6.424c0.301,0,0.603-0.308,0.603-0.614V7.957c0-0.308-0.301-0.611-0.603-0.611H46.426
			c-0.3,0-0.452,0.152-0.3,0.459l0.3,0.608c0.076,0.306,0.226,0.766,0.226,1.07v15.276c0,0.304,0.228,0.459,0.529,0.459h11.867
			c0.301,0,0.603-0.155,0.603-0.459v-2.596c0-0.308-0.301-0.459-0.603-0.459h-6.424c-0.302,0-0.606-0.308-0.606-0.612"/>
		<path clip-path="url(#SVGID_2_)" fill="#FFFFFF" d="M111.881,15.745c-1.205-0.764-2.19-1.375-2.718-1.833
			c-0.456-0.455-0.833-0.763-0.833-1.375c0-1.066,1.06-1.677,2.568-1.677c0.605,0,1.061,0.152,1.438,0.301
			c0.379,0,0.605,0.155,1.058,0.31c0.683,0.457,1.132,0.759,1.132,0.759c0.305,0.157,0.457,0.157,0.457-0.152v-3.51
			c0-0.308-0.228-0.611-0.531-0.764c0,0-0.227-0.155-0.756-0.307c-0.754-0.152-2.192-0.308-3.249-0.308
			c-5.292,0-7.56,2.6-7.56,5.347c0,1.985,1.21,3.361,2.57,4.43c0.679,0.459,1.438,1.07,2.269,1.529
			c0.829,0.608,1.437,1.223,1.437,1.834c0,1.066-1.06,1.525-2.419,1.525c-0.986,0-1.812-0.151-2.496-0.304
			c-0.378-0.155-0.83-0.459-1.136-0.615l-0.299-0.15c-0.227-0.305-0.453-0.152-0.453,0.15v3.212c0,0.303,0.152,0.61,0.301,0.762
			h0.152c1.057,0.459,2.871,0.611,4.536,0.611c4.31,0,7.406-1.988,7.406-5.04C114.756,18.496,113.621,17.122,111.881,15.745"/>
		<path clip-path="url(#SVGID_2_)" fill="#FFFFFF" d="M69.932,15.897h-0.678V10.86h0.98c1.89,0,3.025,0.915,3.025,2.441
			c0,1.069-0.682,1.832-1.212,2.14C71.519,15.745,70.765,15.897,69.932,15.897 M81.42,24.91c0,0-5.742-6.873-6.119-7.333
			c0.376-0.152,0.982-0.456,1.511-0.915c0.832-0.462,2.039-1.985,2.039-3.974c0-3.207-2.492-4.581-4.457-5.04
			c-1.286-0.304-3.477-0.459-5.292-0.459c-0.831,0-5.517,0.155-5.517,0.155c-0.302,0-0.454,0.152-0.302,0.459l0.302,0.608
			c0.15,0.306,0.227,0.766,0.227,1.07v15.276c0,0.304,0.225,0.459,0.527,0.459h4.31c0.3,0,0.605-0.155,0.605-0.459v-6.263h1.209
			c1.812,2.29,4.912,6.263,4.912,6.263c0.15,0.304,0.527,0.459,0.909,0.459h4.988C81.57,25.218,81.649,25.062,81.42,24.91"/>
		<path clip-path="url(#SVGID_2_)" fill="#FFFFFF" d="M148.695,0.775H42.345c-2.492,0-4.535,1.985-4.535,4.582v21.998
			c0,0.458,0.076,0.764,0.224,1.222c0,0.151,0.077,0.459,0.228,0.611c0.68,1.524,2.269,2.751,4.083,2.751h106.351
			c2.568,0,4.532-2.141,4.532-4.584V5.357C153.228,2.761,151.264,0.775,148.695,0.775"/>
		<path clip-path="url(#SVGID_2_)" fill="#FFFFFF" d="M38.808,28.561l-0.005-0.11l-0.034-0.114
			c-0.137-0.423-0.188-0.636-0.188-0.982V5.357c0-2.134,1.653-3.809,3.763-3.809h106.351c2.142,0,3.76,1.639,3.76,3.809v21.998
			c0,2.102-1.688,3.809-3.76,3.809H42.345c-1.386,0-2.775-0.94-3.376-2.292l-0.044-0.093c0,0-0.048-0.059-0.081-0.098
			C38.83,28.655,38.811,28.593,38.808,28.561 M42.345,0c-2.976,0-5.309,2.353-5.309,5.357v21.998c0,0.514,0.087,0.895,0.239,1.371
			c0.024,0.23,0.112,0.556,0.314,0.841c0.872,1.881,2.77,3.146,4.755,3.146h106.351c2.925,0,5.305-2.402,5.305-5.357V5.357
			C154,2.353,151.67,0,148.695,0H42.345z"/>
		<path clip-path="url(#SVGID_2_)" fill="#FFFFFF" d="M1.547,27.355V5.357c0-2.169,1.617-3.809,3.76-3.809h23.584
			c2.151,0,3.836,1.674,3.836,3.809v21.998c0,2.065-1.758,3.809-3.836,3.809H5.308c-1.452,0-2.843-0.909-3.539-2.318l-0.074-0.211
			c0,0-0.044-0.116-0.087-0.228C1.551,28.038,1.547,27.786,1.547,27.355 M5.308,0C2.331,0,0,2.353,0,5.357v21.998
			c0,0.478,0,0.824,0.085,1.346l0.012,0.067l0.056,0.149l0.072,0.203l0.159,0.412c0.955,1.933,2.888,3.181,4.923,3.181h23.584
			c2.918,0,5.383-2.455,5.383-5.357V5.357C34.275,2.353,31.909,0,28.892,0H5.308z"/>
		<path clip-path="url(#SVGID_2_)" fill="#FFFFFF" d="M28.892,22.314 M28.739,0.775H5.535c-2.646,0-4.761,2.137-4.761,4.736v21.691
			c0,0.304,0,0.763,0.149,1.219c0,0.155,0.076,0.459,0.229,0.614c0.074,0.152,0.15,0.457,0.226,0.609v0.154c0,0,0.075,0,0.075-0.154
			c0.831,1.376,2.345,2.294,4.082,2.294h23.204c1.512,0,2.948-0.768,3.779-1.988l-0.906-1.833l-1.737-3.667l2.643,5.5
			c0.606-0.763,0.982-1.679,0.982-2.748V5.512C33.5,2.913,31.31,0.775,28.739,0.775"/>
		<path clip-path="url(#SVGID_2_)" fill="#E42313" d="M153.228,27.355c0,2.444-1.964,4.584-4.532,4.584H42.345
			c-1.814,0-3.402-1.227-4.083-2.751c-0.151-0.152-0.228-0.46-0.228-0.611c-0.148-0.458-0.224-0.764-0.224-1.222V5.357
			c0-2.596,2.043-4.582,4.535-4.582h106.351c2.568,0,4.532,1.985,4.532,4.582"/>
		<path clip-path="url(#SVGID_2_)" fill="#005FAA" d="M0.924,28.422c0,0.155,0.076,0.459,0.229,0.614
			c0.677,1.677,2.417,2.903,4.382,2.903h23.204c1.512,0,2.948-0.768,3.779-1.988l-3.626-7.637c-0.304,0.612-2.85,3.514-7.409,3.514
			c-5.364,0-7.255-3.973-7.255-3.973c11.487-1.222,10.053-10.844,10.053-10.844c-2.571,6.11-12.093,6.414-12.093,6.414
			C11.807,7.19,21.256,6.579,21.256,6.579L18.46,0.775H5.535c-2.646,0-4.761,2.137-4.761,4.736v21.691
			C0.774,27.507,0.774,27.966,0.924,28.422"/>
		<path clip-path="url(#SVGID_2_)" fill="#E42313" d="M24.281,11.012c0,0,1.434,9.622-10.053,10.844c0,0,1.891,3.973,7.255,3.973
			c4.914,0,7.105-2.902,7.409-3.514l3.626,7.637c0.606-0.763,0.982-1.679,0.982-2.748V5.512c0-2.599-2.19-4.736-4.761-4.736H18.46
			l2.795,5.803c0,0-9.449,0.611-9.067,10.847C12.188,17.426,21.71,17.122,24.281,11.012"/>
		<path clip-path="url(#SVGID_2_)" fill="#FFFFFF" d="M18.46,0.775l2.795,5.803c0,0-9.449,0.611-9.067,10.847
			c0,0,9.521-0.304,12.093-6.414c0,0,1.434,9.622-10.053,10.844c0,0,1.891,3.973,7.255,3.973c4.914,0,7.105-2.902,7.409-3.514
			l2.72,5.805c-0.379,0.303-3.932,3.665-9.978,3.821h-0.605c-6.273-0.156-11.563-4.28-13.225-8.555c0,0-3.704,1.374-6.124,5.804
			c0,0.152-0.151,0.457-0.302,0.61c0-0.154,0.075-0.763,0.151-1.07c0.301-2.14,1.285-6.721,4.761-9.165c0,0-1.588-6.566,2.57-12.374
			C12.868,1.539,18.006,0.928,18.46,0.775"/>
		<path clip-path="url(#SVGID_2_)" fill="#FFFFFF" d="M95.251,16.356c0-2.596-1.733-4.581-4.303-4.581
			c-2.649,0-4.462,1.985-4.462,4.581c0,2.596,1.812,4.581,4.462,4.581C93.593,20.937,95.251,18.952,95.251,16.356 M100.396,16.201
			c0,5.351-4.084,9.321-9.525,9.321c-5.289,0-9.45-3.97-9.45-9.166c0-5.195,4.161-9.318,9.676-9.318
			C96.464,7.038,100.396,11.012,100.396,16.201"/>
		<path clip-path="url(#SVGID_2_)" fill="#FFFFFF" d="M136.221,7.804c0.23-0.307,0.15-0.459-0.148-0.459h-4.837
			c-0.229,0-0.683,0.152-0.831,0.459l-6.2,6.718c-0.153,0.155-0.379,0.155-0.379-0.151V7.957c0-0.308-0.227-0.611-0.527-0.611
			h-3.405h-0.982h-0.829c-0.229,0-0.301,0.152-0.15,0.459l0.305,0.608c0.149,0.306,0.223,0.766,0.223,1.07v15.276
			c0,0.304,0.227,0.459,0.53,0.459h4.31c0.301,0,0.527-0.155,0.527-0.459v-7.484c0-0.308,0.151-0.308,0.304-0.153l5.44,7.637
			c0.152,0.304,0.53,0.459,0.835,0.459h5.138c0.301,0,0.378-0.155,0.227-0.459l-6.199-8.861c-0.227-0.305-0.227-0.611,0-0.764"/>
		<path clip-path="url(#SVGID_2_)" fill="#FFFFFF" d="M140.152,7.345h-0.984h-0.829c-0.229,0-0.305,0.152-0.152,0.459l0.305,0.608
			c0.148,0.306,0.226,0.766,0.226,1.07v15.276c0,0.304,0.227,0.459,0.529,0.459h4.308c0.305,0,0.604-0.155,0.604-0.459V7.957
			c0-0.308-0.299-0.611-0.604-0.611"/>
		<path clip-path="url(#SVGID_2_)" fill="#FFFFFF" d="M52.018,18.496c0-0.307,0.305-0.61,0.606-0.61h4.156
			c0.303,0,0.682-0.156,0.759-0.46l1.207-2.445c0.151-0.304,0-0.61-0.302-0.61h-5.82c-0.302,0-0.606-0.152-0.606-0.459v-2.596
			c0-0.304,0.305-0.456,0.606-0.456h6.424c0.301,0,0.603-0.308,0.603-0.614V7.957c0-0.308-0.301-0.611-0.603-0.611H46.426
			c-0.3,0-0.452,0.152-0.3,0.459l0.3,0.608c0.076,0.306,0.226,0.766,0.226,1.07v15.276c0,0.304,0.228,0.459,0.529,0.459h11.867
			c0.301,0,0.603-0.155,0.603-0.459v-2.596c0-0.308-0.301-0.459-0.603-0.459h-6.424c-0.302,0-0.606-0.308-0.606-0.612"/>
		<path clip-path="url(#SVGID_2_)" fill="#FFFFFF" d="M111.881,15.745c-1.205-0.764-2.19-1.375-2.718-1.833
			c-0.456-0.455-0.833-0.763-0.833-1.375c0-1.066,1.06-1.677,2.568-1.677c0.605,0,1.061,0.152,1.438,0.301
			c0.379,0,0.605,0.155,1.058,0.31c0.683,0.457,1.132,0.759,1.132,0.759c0.305,0.157,0.457,0.157,0.457-0.152v-3.51
			c0-0.308-0.228-0.611-0.531-0.764c0,0-0.227-0.155-0.756-0.307c-0.754-0.152-2.192-0.308-3.249-0.308
			c-5.292,0-7.56,2.6-7.56,5.347c0,1.985,1.21,3.361,2.57,4.43c0.679,0.459,1.438,1.07,2.269,1.529
			c0.829,0.608,1.437,1.223,1.437,1.834c0,1.066-1.06,1.525-2.419,1.525c-0.986,0-1.812-0.151-2.496-0.304
			c-0.378-0.155-0.83-0.459-1.136-0.615l-0.299-0.15c-0.227-0.305-0.453-0.152-0.453,0.15v3.212c0,0.303,0.152,0.61,0.301,0.762
			h0.152c1.057,0.459,2.871,0.611,4.536,0.611c4.31,0,7.406-1.988,7.406-5.04C114.756,18.496,113.621,17.122,111.881,15.745"/>
		<path clip-path="url(#SVGID_2_)" fill="#FFFFFF" d="M69.932,15.897h-0.678V10.86h0.98c1.89,0,3.025,0.915,3.025,2.441
			c0,1.069-0.682,1.832-1.212,2.14C71.519,15.745,70.765,15.897,69.932,15.897 M81.42,24.91c0,0-5.742-6.873-6.119-7.333
			c0.376-0.152,0.982-0.456,1.511-0.915c0.832-0.462,2.039-1.985,2.039-3.974c0-3.207-2.492-4.581-4.457-5.04
			c-1.286-0.304-3.477-0.459-5.292-0.459c-0.831,0-5.517,0.155-5.517,0.155c-0.302,0-0.454,0.152-0.302,0.459l0.302,0.608
			c0.15,0.306,0.227,0.766,0.227,1.07v15.276c0,0.304,0.225,0.459,0.527,0.459h4.31c0.3,0,0.605-0.155,0.605-0.459v-6.263h1.209
			c1.812,2.29,4.912,6.263,4.912,6.263c0.15,0.304,0.527,0.459,0.909,0.459h4.988C81.57,25.218,81.649,25.062,81.42,24.91"/>
		<path clip-path="url(#SVGID_2_)" fill="#005FAA" d="M124.708,45.095c0,0.666-0.541,1.205-1.203,1.205
			c-0.666,0-1.21-0.539-1.21-1.205c0-0.668,0.544-1.207,1.21-1.207C124.167,43.888,124.708,44.427,124.708,45.095"/>
		<path clip-path="url(#SVGID_2_)" fill="#005FAA" d="M107.77,59.269l-0.081-4.783c0.453-6.42-1.894-6.34-1.894-6.34
			c-2.926-0.895-4.036,3.803-4.473,5.543c0.011-0.225,0.021-0.373,0.021-0.373s0.108-2.398,0.147-2.662
			c0.036-0.26,0.228-1.461,0.228-1.609s0-1.16-0.902-1.273c-0.899-0.109-1.125,0.488-1.125,0.602c0,0.109-0.524,7.119-0.485,7.756
			c0.035,0.637-0.266,3.412-0.113,3.635c0.148,0.227,0.448,1.199,1.501,0.748c0.352-0.146,0.536-0.654,0.63-1.268
			c0.146-0.379,0.651-1.719,0.863-2.49c0.249-0.906,2.225-6.016,2.225-6.016c0.208-0.74,1.03-1.111,1.398-0.371
			c0.372,0.744,0.126,3.463,0.126,3.463l0.205,5.969c-0.165,2.021,1.648,1.648,2.155,1.316
			C108.707,60.778,107.77,59.269,107.77,59.269"/>
		<path clip-path="url(#SVGID_2_)" fill="#005FAA" d="M87.449,57.479c0.051-0.219,0-0.434-0.158-0.641
			c-0.158-0.203-0.369-0.307-0.607-0.307c-0.12,0-0.232,0.027-0.333,0.074c-0.005,0-0.218,0.121-0.538,0.305
			c-0.16,0.074-0.322,0.148-0.48,0.223c-1.934,0.877-3.473,1.322-4.58,1.322c-0.5,0-0.899-0.09-1.201-0.271
			c-0.492-0.316-0.732-0.76-0.732-1.361c0-0.996,0.615-2.289,1.828-3.84c1.314-1.686,1.947-2.137,2.248-2.215l0.178-0.02
			c0.062,0,0.188,0.012,0.417,0.074c0.22,0.061,0.381,0.09,0.487,0.09c0.32,0,0.618-0.18,0.889-0.545
			c0.262-0.338,0.398-0.662,0.398-0.959c0-0.316-0.145-0.842-1.114-0.842l-0.487,0.023c-1.295,0.191-2.736,1.256-4.291,3.164
			c-1.598,1.965-2.409,3.754-2.409,5.324c0,0.678,0.19,1.262,0.563,1.729c0.653,0.848,1.678,1.273,3.05,1.273
			c0.214,0,0.446-0.027,0.677-0.047c1.229-0.111,2.664-0.502,4.312-1.203c0.14-0.062,0.285-0.129,0.424-0.193
			c0.113-0.072,0.217-0.139,0.31-0.201c1.12-0.746,1.14-0.867,1.154-0.969L87.449,57.479z"/>
		<path clip-path="url(#SVGID_2_)" fill="#005FAA" d="M94.242,50.837c0.417,0.08,0.746,0.215,0.975,0.41
			c0.18,0.168,0.387,0.475,0.597,0.918c0.236,0.523,0.351,1.062,0.351,1.607c0,0.801-0.267,1.742-0.793,2.797
			c-0.269,0.533-0.761,1.064-1.465,1.586c-0.735,0.572-1.395,0.859-1.973,0.859c-0.527,0-0.947-0.297-1.267-0.908
			c-0.249-0.504-0.372-1.092-0.372-1.732c0-0.391,0.051-0.736,0.154-1.031c0.586-1.715,1.377-2.988,2.354-3.783
			c0.406-0.316,0.835-0.533,1.278-0.633l0.174-0.043C94.255,50.884,94.249,50.856,94.242,50.837 M97.866,53.151v-0.008
			c-0.213-1.461-0.83-2.59-1.843-3.346c-0.782-0.602-1.559-0.879-2.318-0.816c-1.749,0.135-3.371,1.867-4.812,5.152
			c-0.331,0.734-0.496,1.5-0.496,2.289c0,0.943,0.21,1.814,0.624,2.596c0.421,0.785,0.918,1.328,1.472,1.604
			c0.303,0.162,0.683,0.246,1.122,0.246c1.39,0,2.764-0.615,4.087-1.814c1.478-1.377,2.224-3.035,2.224-4.93
			C97.925,53.808,97.906,53.485,97.866,53.151"/>
		<path clip-path="url(#SVGID_2_)" fill="#005FAA" d="M122.063,48.591c-0.017-0.277-0.166-0.643-0.756-0.791
			c-0.179-0.059-0.537-0.096-1.081-0.115c-1.353-0.072-2.774,0.031-4.229,0.305c0.067-0.443,0.564-3.691,0.564-3.691
			c0.058-0.588,0.096-1.102,0.096-1.537c0-0.545,0-2.199-1.039-2.199c-0.368,0-0.814,0.223-0.814,1.277v0.711v0.012
			c0.019,0.139,0.028,0.24,0.028,0.314c0,0.09-0.01,0.143-0.02,0.172l-0.006,0.016l-0.003,0.012
			c-0.301,2.68-0.521,4.443-0.654,5.264c-1.741,0.531-2.908,0.92-3.558,1.172c-1.271,0.484-1.893,0.998-1.893,1.576
			c0,0.334,0.175,0.777,1.013,0.99c0.167,0.055,0.404-0.031,0.774-0.311c0.438-0.332,0.87-0.598,1.287-0.799
			c0.935-0.332,1.631-0.564,2.097-0.701c-0.057,0.471-0.421,3.488-0.421,3.488c-0.204,2.91-0.312,4.889-0.312,5.898
			c0,0.041-0.002,0.08-0.002,0.119c0,0.336,0.078,0.652,0.223,0.949c0.22,0.408,0.537,0.631,0.944,0.654
			c0.324,0.021,0.569-0.047,0.737-0.205c0.165-0.148,0.243-0.367,0.243-0.656c0-0.148-0.028-0.324-0.081-0.549l-0.075-0.311v-0.002
			c0-0.068-0.014-1.359-0.014-1.359c0-2.266,0.204-5.109,0.602-8.451c1.782-0.387,3.308-0.584,4.531-0.584l0.423,0.049l0.533,0.051
			c0.311,0,0.543-0.078,0.689-0.23c0.121-0.131,0.184-0.312,0.171-0.533V48.591z"/>
		<path clip-path="url(#SVGID_2_)" fill="#005FAA" d="M123.844,49.28c-0.226-0.281-0.523-0.418-0.865-0.395
			c-0.495,0.023-0.812,0.428-0.94,1.195c-0.024,0.139-0.06,0.75-0.146,2.191c-0.247,5.326-0.278,6.051-0.278,6.094
			c0,1.467,0.232,1.826,0.409,1.963c0.263,0.203,0.531,0.307,0.8,0.307c0.584,0,0.795-0.305,0.862-0.559
			c0.062-0.229,0.091-0.412,0.091-0.559c0-0.061-0.016-0.16-0.213-0.746c-0.134-0.381-0.182-0.922-0.146-1.609
			c0.062-0.938,0.289-3.238,0.695-6.828v-0.002C124.155,49.907,124.063,49.556,123.844,49.28"/>
		<path clip-path="url(#SVGID_2_)" fill="#005FAA" d="M140.052,50.837c0.413,0.08,0.743,0.215,0.97,0.41
			c0.182,0.168,0.386,0.479,0.6,0.918c0.231,0.516,0.352,1.057,0.352,1.607c0,0.801-0.269,1.742-0.799,2.797
			c-0.261,0.533-0.758,1.064-1.461,1.586c-0.731,0.572-1.398,0.859-1.969,0.859c-0.538,0-0.947-0.297-1.272-0.908
			c-0.247-0.504-0.373-1.092-0.373-1.732c0-0.389,0.059-0.734,0.159-1.031c0.584-1.715,1.376-2.988,2.355-3.783
			c0.404-0.316,0.833-0.533,1.274-0.633l0.175-0.043C140.062,50.884,140.056,50.856,140.052,50.837 M143.677,53.151v-0.008
			c-0.216-1.461-0.835-2.59-1.847-3.346c-0.779-0.602-1.562-0.879-2.317-0.816c-1.75,0.135-3.369,1.867-4.816,5.152
			c-0.325,0.729-0.496,1.496-0.496,2.289c0,0.943,0.209,1.814,0.628,2.596c0.418,0.785,0.912,1.328,1.475,1.604
			c0.301,0.162,0.678,0.246,1.118,0.246c1.39,0,2.764-0.615,4.085-1.814c1.475-1.373,2.221-3.035,2.221-4.93
			C143.727,53.8,143.711,53.478,143.677,53.151"/>
		<path clip-path="url(#SVGID_2_)" fill="#005FAA" d="M131.206,55.806c0,0,0.062,0,0.848-2.051l0.243-1.801l-0.155-0.375v-0.006
			v0.006c-0.233-0.305-0.572-0.436-1.001-0.381l-0.6,0.229c-0.163,0.121-0.249,0.289-0.249,0.49c0,0.035,0.005,0.066,0.009,0.102
			c0,0.004,0.086,0.684,0.086,0.684c0,0.002-0.069,0.588-0.069,0.588c-0.301,0.922-0.831,2.09-1.578,3.484
			c-1.103,2.006-1.438,2.184-1.5,2.195c0.007-0.002,0.009-0.01,0.009-0.029c0-0.145-0.15-0.736-0.15-0.736
			c-0.024-0.184-0.036-0.393-0.036-0.611c0-0.934,0.214-2.182,0.64-3.721c0.596-2.086,1.284-3.191,2.053-3.291
			c0.053-0.008,0.327-0.043,0.327-0.043c0.207-0.025,0.565-0.17,0.565-0.818v-0.021c0-0.289-0.233-0.543-0.709-0.773
			c-0.454-0.217-0.842-0.271-1.151-0.168c-0.581,0.176-1.192,0.887-1.852,2.176c-0.686,1.34-1.139,2.807-1.341,4.365
			c-0.184,1.475-0.201,2.764-0.062,3.832c0.133,1.01,0.389,1.654,0.783,1.955l0.731,0.191c0.784-0.102,1.747-1.174,2.907-3.164
			C130.276,57.665,131.206,55.806,131.206,55.806"/>
		<path clip-path="url(#SVGID_2_)" fill="#005FAA" d="M133.056,55.481c-0.4-2.902-0.665-3.477-0.854-3.656
			c-0.182-0.211-0.427-0.324-0.719-0.326c-0.675-0.014-0.819,0.377-0.851,0.611c-0.002,0.021,0.146,0.578,0.146,0.578l0.101,0.277
			c0,0.027,0.416,3.139,0.416,3.139c0.237,2.213,0.352,4.186,0.318,5.855c-0.016,1.115-0.107,2.1-0.259,2.924
			c-0.309,1.814-1.115,3.385-2.398,4.678c-1.271,1.283-2.669,1.92-4.155,1.896l-0.681-0.057c-2.285-0.408-3.381-1.707-3.338-3.973
			l0.019-0.592c0.094-0.305,0.554-0.295,0.274-0.828c-0.277-0.537-0.97-1.086-1.248,0.117c-0.148,0.641-0.203,1.441-0.184,1.693
			c0,0.051-0.01,0.1-0.01,0.156c-0.025,1.623,0.621,2.967,1.928,4.006c0.828,0.652,1.929,0.996,3.277,1.018
			c1.63,0.029,3.153-0.459,4.525-1.455c1.623-1.193,2.833-3.004,3.594-5.389c0.323-1.004,0.5-2.383,0.531-4.102
			c0.027-1.609-0.062-3.354-0.267-5.205C133.172,56.401,133.116,55.94,133.056,55.481"/>
	</g>
</g>
</svg>
